<?xml version="1.0" encoding="UTF-8"?>
<svg version="1.1" xmlns="http://www.w3.org/2000/svg" width="1024" height="1024">
<path d="M0 0 C2.6859168 2.04795377 5.01732005 4.21329152 7.26953125 6.73046875 C8.47609375 7.81328125 8.47609375 7.81328125 9.70703125 8.91796875 C18.52286076 18.59387919 23.18328438 31.66406867 23.26953125 44.73046875 C23.06984687 47.77111725 22.70789484 50.71063071 22.26953125 53.73046875 C29.45115009 58.1053301 36.73247824 62.27020575 44.08203125 66.35546875 C54.67017653 72.26298404 65.2136852 78.24329255 75.73095703 84.27587891 C78.26165894 85.72595796 80.79448224 87.17225372 83.328125 88.6171875 C91.92960055 93.52339089 100.51896462 98.4493012 109.09033203 103.40795898 C118.60142713 108.9097723 128.12474881 114.37900535 137.75268555 119.67431641 C138.41437744 120.03831543 139.07606934 120.40231445 139.7578125 120.77734375 C140.36834473 121.10798828 140.97887695 121.43863281 141.60791016 121.77929688 C143.26953125 122.73046875 143.26953125 122.73046875 145.9375 124.62109375 C148.23851843 126.01969238 148.23851843 126.01969238 150.7578125 125.1015625 C153.3413195 123.69128108 155.9113747 122.27072802 158.45703125 120.79296875 C172.70094441 112.98547624 186.78623306 112.59089265 202.26953125 116.73046875 C215.35333716 121.51680095 226.30045661 131.55134337 232.64453125 143.85546875 C238.83153814 157.20196599 239.81565528 170.65466892 235.26953125 184.73046875 C230.06350691 197.65624422 222.58419411 207.82137011 210.26953125 214.73046875 C208.88808341 215.28202977 207.49804831 215.81241311 206.1015625 216.32470703 C205.02418823 216.7219548 205.02418823 216.7219548 203.92504883 217.12722778 C203.37872803 217.3262973 202.83240723 217.52536682 202.26953125 217.73046875 C202.27091394 218.87044925 202.27091394 218.87044925 202.27232456 220.03345966 C202.2943922 238.51078507 202.31094887 256.98810785 202.32134342 275.46544361 C202.32650353 284.40087672 202.33354081 293.33630104 202.3449707 302.27172852 C202.35492623 310.05826104 202.36138676 317.84478719 202.36361974 325.6313259 C202.36492537 329.75565261 202.3680019 333.87996111 202.37526131 338.004282 C202.3820352 341.88410549 202.3841454 345.76390323 202.38263893 349.64373207 C202.38291464 351.06958659 202.38491166 352.49544194 202.38873672 353.92129135 C202.39369524 355.86453889 202.39192382 357.80780017 202.38978577 359.75105286 C202.39116846 361.38400913 202.39116846 361.38400913 202.39257908 363.04995441 C202.26953125 365.73046875 202.26953125 365.73046875 201.26953125 368.73046875 C202.54828125 368.91609375 203.82703125 369.10171875 205.14453125 369.29296875 C215.6430052 371.66253027 225.23979711 380.64187481 231.05859375 389.43359375 C238.74897061 402.99593323 241.67579408 417.47761475 237.70703125 432.79296875 C233.32854866 446.538658 225.33485165 458.04808137 212.58203125 465.16796875 C210.82253005 466.04524118 209.05255444 466.90204875 207.26953125 467.73046875 C206.59664062 468.05789063 205.92375 468.3853125 205.23046875 468.72265625 C194.39931146 473.73266292 179.47310997 473.38269471 168.26953125 469.66796875 C162.60386252 467.56305756 158.04316063 464.86695093 153.41796875 460.98828125 C151.35966099 459.53530869 151.35966099 459.53530869 149.01171875 459.7578125 C145.09702875 461.14635639 141.6177582 463.10770608 138.01953125 465.16796875 C137.22160156 465.61825439 136.42367188 466.06854004 135.6015625 466.5324707 C129.77044079 469.83665786 123.98437103 473.21674599 118.21850586 476.63330078 C111.70431449 480.49121278 105.14480016 484.26841995 98.58203125 488.04296875 C90.44865294 492.72388519 82.33938732 497.44086728 74.26953125 502.23046875 C57.37984109 512.25206829 40.33800093 522.01695782 23.26953125 531.73046875 C23.30433594 532.890625 23.33914063 534.05078125 23.375 535.24609375 C23.72716823 551.81934407 21.13199218 566.16301375 9.89453125 579.10546875 C-1.12714067 590.60554379 -13.86348988 596.85067854 -29.84765625 597.75 C-45.12546545 597.67314985 -58.54865975 592.5427098 -69.734375 581.890625 C-79.44718123 571.37950592 -84.52589683 558.92448438 -84.98046875 544.60546875 C-84.69339323 540.1557982 -83.84692371 536.03679503 -82.73046875 531.73046875 C-83.44493164 531.46041016 -84.15939453 531.19035156 -84.89550781 530.91210938 C-87.75910289 529.71853375 -90.38515768 528.34220352 -93.08984375 526.82421875 C-94.62596313 525.96389038 -94.62596313 525.96389038 -96.19311523 525.08618164 C-97.27794189 524.47379639 -98.36276855 523.86141113 -99.48046875 523.23046875 C-100.60718994 522.59681396 -101.73391113 521.96315918 -102.89477539 521.31030273 C-109.68420752 517.48127447 -116.43794189 513.59950207 -123.14135742 509.62207031 C-129.49433522 505.85431642 -135.8916676 502.16541445 -142.29296875 498.48046875 C-151.76182689 493.02766285 -161.21072577 487.54221255 -170.64355469 482.02734375 C-176.0555871 478.86598396 -181.47536347 475.71866907 -186.90625 472.58984375 C-187.5039621 472.24546265 -188.10167419 471.90108154 -188.71749878 471.54626465 C-191.62512524 469.87155243 -194.53373357 468.19858201 -197.44335938 466.52734375 C-198.48298828 465.92921875 -199.52261719 465.33109375 -200.59375 464.71484375 C-201.51454346 464.18600586 -202.43533691 463.65716797 -203.3840332 463.11230469 C-205.20109642 462.04222064 -206.97588821 460.90018911 -208.73046875 459.73046875 C-212.41390194 460.06603576 -215.15435888 462.11213097 -218.23046875 464.04296875 C-231.44963976 471.77403627 -244.43344357 473.82077071 -259.48828125 471.03515625 C-272.80093321 467.28998939 -284.30861817 459.46051756 -291.73046875 447.73046875 C-296.93845413 438.39586966 -300.1171653 430.21531187 -300.04296875 419.48046875 C-300.0380542 418.6407251 -300.03313965 417.80098145 -300.02807617 416.93579102 C-299.90667237 410.48520229 -299.13680183 404.7610341 -296.73046875 398.73046875 C-296.42496094 397.91835938 -296.11945313 397.10625 -295.8046875 396.26953125 C-290.60697134 384.2864329 -280.5728083 374.97299443 -268.73046875 369.73046875 C-267.06893435 369.3724292 -265.40259972 369.03520945 -263.73046875 368.73046875 C-263.83705055 367.20410042 -263.83705055 367.20410042 -263.94578552 365.64689636 C-264.89026797 350.88670881 -264.86224868 336.13502 -264.83186269 321.35127282 C-264.8255166 317.73053702 -264.82501661 314.10979995 -264.82383728 310.48905945 C-264.82075658 303.66502744 -264.8125882 296.84101187 -264.80248779 290.01698703 C-264.79122404 282.23435096 -264.78579061 274.45171401 -264.78079236 266.66907179 C-264.770402 250.68952799 -264.75286726 234.71000051 -264.73046875 218.73046875 C-265.67873535 218.20662598 -266.62700195 217.6827832 -267.60400391 217.14306641 C-268.8676924 216.43554165 -270.13119148 215.72767851 -271.39453125 215.01953125 C-272.32857788 214.50531616 -272.32857788 214.50531616 -273.28149414 213.98071289 C-285.94659006 206.84673427 -294.70730157 194.69628603 -298.73046875 180.79296875 C-301.63712546 166.4876583 -300.06418541 152.32176989 -292.35546875 139.79296875 C-291.17109588 138.08856662 -289.964822 136.39903033 -288.73046875 134.73046875 C-288.07304687 133.78107422 -288.07304687 133.78107422 -287.40234375 132.8125 C-279.20146176 122.01796558 -266.48994885 116.28548698 -253.4453125 114.20703125 C-239.08583807 112.66668238 -225.1197907 116.02147918 -213.64453125 125.0078125 C-210.64363674 126.14080328 -208.65949538 124.85049596 -205.73046875 123.73046875 C-204.01535051 122.83624204 -202.32721332 121.88860339 -200.66796875 120.89453125 C-199.71736572 120.33088867 -198.7667627 119.76724609 -197.78735352 119.18652344 C-196.77858154 118.58227539 -195.76980957 117.97802734 -194.73046875 117.35546875 C-186.66082252 112.57956824 -178.54803761 107.92842875 -170.29296875 103.48046875 C-163.19111357 99.64693487 -156.18245712 95.70285046 -149.24755859 91.57568359 C-143.51576825 88.1714694 -137.72673249 84.87640381 -131.91796875 81.60546875 C-122.83699438 76.49158047 -113.77710569 71.34226584 -104.73046875 66.16796875 C-104.1298764 65.82449402 -103.52928406 65.48101929 -102.91049194 65.12713623 C-101.18375398 64.13955611 -99.45710996 63.15181176 -97.73046875 62.1640625 C-96.68246094 61.56577637 -95.63445312 60.96749023 -94.5546875 60.35107422 C-92.84385409 59.36935636 -91.13692212 58.38073631 -89.4375 57.37939453 C-84.93165518 54.73046875 -84.93165518 54.73046875 -82.73046875 54.73046875 C-83.06046875 53.59609375 -83.39046875 52.46171875 -83.73046875 51.29296875 C-86.87130554 38.36808642 -83.11933194 25.96576689 -76.609375 14.671875 C-68.86046767 2.54104918 -57.33635797 -5.2122752 -43.40234375 -8.8828125 C-27.87895243 -11.12961914 -13.0832458 -8.98395649 0 0 Z M16.26953125 91.73046875 C21.68371826 101.24826936 27.1636852 110.72485508 32.70703125 120.16796875 C33.07770721 120.80010284 33.44838318 121.43223694 33.83029175 122.08352661 C37.96369581 129.13207648 42.10817149 136.17310304 46.33203125 143.16796875 C48.70183981 147.09638218 51.04511048 151.03527598 53.31689453 155.02099609 C54.3139588 156.76142236 55.33452996 158.48831407 56.35546875 160.21484375 C57.74775086 162.64686176 58.82085554 165.06243632 59.80859375 167.68359375 C61.49871903 171.8310484 62.95690748 174.61778386 66.26953125 177.73046875 C72.25762573 179.45060806 78.65443162 178.842076 84.81738281 178.69921875 C93.68675993 178.81224944 100.92074599 183.40433653 107.89453125 188.4375 C110.10149596 189.94735347 110.10149596 189.94735347 112.14746094 189.45410156 C114.47088256 188.66180731 116.45972513 187.65171649 118.59765625 186.4453125 C119.31856445 186.04175537 120.03947266 185.63819824 120.78222656 185.22241211 C121.68553711 184.7094458 122.58884766 184.19647949 123.51953125 183.66796875 C126.40703125 182.03859375 129.29453125 180.40921875 132.26953125 178.73046875 C132.26953125 171.80046875 132.26953125 164.87046875 132.26953125 157.73046875 C130.67109375 156.81007813 129.07265625 155.8896875 127.42578125 154.94140625 C125.20692078 153.66295161 122.98814238 152.38435593 120.76953125 151.10546875 C120.18563629 150.76889252 119.60174133 150.43231628 119.00015259 150.08554077 C110.63737943 145.26361137 102.29028063 140.41580102 93.95703125 135.54296875 C85.78085419 130.76387943 77.57923906 126.03287566 69.35131836 121.34350586 C62.22957717 117.28343525 55.12149411 113.20003571 48.01953125 109.10546875 C46.37331787 108.15704102 46.37331787 108.15704102 44.69384766 107.18945312 C39.75050026 104.33669417 34.81577806 101.47191951 29.91015625 98.5546875 C29.11641602 98.08305176 28.32267578 97.61141602 27.50488281 97.12548828 C26.05646936 96.26207188 24.61034752 95.39479484 23.16699219 94.52294922 C19.94385249 92.42626233 19.94385249 92.42626233 16.26953125 91.73046875 Z M-80.73046875 92.73046875 C-98.93308772 102.87176865 -117.02355243 113.17755923 -134.97558594 123.75537109 C-151.37979108 133.41930913 -167.83950814 142.98376062 -184.38891602 152.39697266 C-187.5047117 154.1713941 -190.61726867 155.95149728 -193.73046875 157.73046875 C-193.73046875 164.66046875 -193.73046875 171.59046875 -193.73046875 178.73046875 C-188.60071971 181.60362493 -188.60071971 181.60362493 -183.46948242 184.47412109 C-182.8272876 184.8345752 -182.18509277 185.1950293 -181.5234375 185.56640625 C-180.54153442 186.11627197 -180.54153442 186.11627197 -179.53979492 186.67724609 C-177.89870569 187.63253674 -176.31043435 188.67715835 -174.73046875 189.73046875 C-170.86421195 189.41817014 -168.50376066 188.12327195 -165.41796875 185.85546875 C-159.12195962 181.4797424 -152.10107611 178.30300123 -144.31640625 178.9765625 C-135.27601117 179.62275494 -135.27601117 179.62275494 -127.06103516 176.53613281 C-123.91925915 172.98634879 -122.02763938 168.67508604 -120.03857422 164.41064453 C-117.48852926 159.18586037 -114.42389355 154.24037973 -111.48046875 149.23046875 C-110.18741594 146.98331555 -108.89707145 144.73460186 -107.609375 142.484375 C-103.90717793 136.02895295 -100.16959566 129.59476291 -96.41796875 123.16796875 C-95.84522217 122.18425293 -95.27247559 121.20053711 -94.68237305 120.18701172 C-92.01651944 115.61445232 -89.33273089 111.05497863 -86.59765625 106.5234375 C-85.88283081 105.3324646 -85.88283081 105.3324646 -85.15356445 104.11743164 C-84.27100296 102.65019097 -83.38189095 101.18686302 -82.48510742 99.72827148 C-81.50611805 98.09731114 -80.60853762 96.41790672 -79.73046875 94.73046875 C-80.22546875 93.74046875 -80.22546875 93.74046875 -80.73046875 92.73046875 Z M-46.2434082 102.7421875 C-47.82602337 105.83862359 -49.25488145 108.97553556 -50.60107422 112.18164062 C-52.5307743 116.53660579 -55.00392477 120.56824937 -57.41796875 124.66796875 C-58.44006638 126.45556631 -59.4595273 128.24467364 -60.4765625 130.03515625 C-63.95565865 136.13394479 -67.46731214 142.21375602 -70.98046875 148.29296875 C-77.20218306 159.060853 -83.38228276 169.85193645 -89.54003906 180.65649414 C-90.17522461 181.77016357 -90.81041016 182.88383301 -91.46484375 184.03125 C-92.02397461 185.01262939 -92.58310547 185.99400879 -93.15917969 187.00512695 C-94.73046875 189.73046875 -94.73046875 189.73046875 -96.55957031 192.27416992 C-98.04760328 194.65699289 -98.04760328 194.65699289 -96.96099854 196.96316528 C-96.55492371 197.87637543 -96.14884888 198.78958557 -95.73046875 199.73046875 C-95.38689331 200.81531052 -95.04331787 201.90015228 -94.68933105 203.01786804 C-92.94595353 207.08660777 -91.43498231 210.1869144 -87.73046875 212.73046875 C-79.56066332 215.21934248 -70.43676249 214.23514713 -62.01171875 214 C-59.46729228 213.97573969 -56.9228049 213.95724114 -54.3782959 213.94425964 C-48.37736334 213.89978171 -42.38014685 213.79747201 -36.38070059 213.66671628 C-29.54674489 213.52103037 -22.71263479 213.44984163 -15.87751102 213.38467562 C-1.82678175 213.24905867 12.22120433 213.02064389 26.26953125 212.73046875 C26.82382812 211.75464844 27.378125 210.77882813 27.94921875 209.7734375 C28.68093216 208.48824856 29.41270617 207.20309411 30.14453125 205.91796875 C30.50933594 205.27537109 30.87414062 204.63277344 31.25 203.97070312 C32.85037026 201.16278077 34.47595991 198.42082577 36.26953125 195.73046875 C26.42695372 177.61258898 16.2957585 159.66954703 5.8671875 141.8828125 C1.34054069 134.15808658 -3.1216833 126.3963311 -7.58178711 118.63305664 C-10.85288874 112.94858891 -14.16719789 107.29593273 -17.56640625 101.68701172 C-18.73046875 99.73046875 -18.73046875 99.73046875 -19.73046875 97.73046875 C-34.72157696 95.1246893 -34.72157696 95.1246893 -46.2434082 102.7421875 Z M-219.87109375 214.22265625 C-222.73046875 215.73046875 -222.73046875 215.73046875 -227.73046875 217.73046875 C-227.73046875 258.65046875 -227.73046875 299.57046875 -227.73046875 341.73046875 C-227.07046875 341.73046875 -226.41046875 341.73046875 -225.73046875 341.73046875 C-225.40046875 342.39046875 -225.07046875 343.05046875 -224.73046875 343.73046875 C-222.25034912 339.39768011 -219.77130922 335.06427521 -217.29296875 330.73046875 C-216.92399475 330.08533325 -216.55502075 329.44019775 -216.17486572 328.7755127 C-212.12455502 321.69227105 -208.08232459 314.60530138 -204.10546875 307.48046875 C-200.30593357 300.68670927 -196.39841822 293.95650142 -192.48046875 287.23046875 C-191.88927246 286.21436523 -191.29807617 285.19826172 -190.68896484 284.15136719 C-187.76533193 279.14533927 -184.80708187 274.19092102 -181.60522461 269.35693359 C-180.52305265 267.61471171 -180.52305265 267.61471171 -180.54296875 264.85546875 C-181.98806467 261.05258474 -183.95339794 257.8005656 -186.16015625 254.390625 C-189.56139893 248.62881838 -191.25132598 243.29275368 -191.98046875 236.73046875 C-192.07070313 236.05757812 -192.1609375 235.3846875 -192.25390625 234.69140625 C-192.80273378 230.10604074 -192.54994745 226.22589476 -191.73046875 221.73046875 C-192.39046875 221.73046875 -193.05046875 221.73046875 -193.73046875 221.73046875 C-194.22546875 220.24546875 -194.22546875 220.24546875 -194.73046875 218.73046875 C-196.31577531 217.49361694 -196.31577531 217.49361694 -198.29296875 216.46875 C-199.36417969 215.87416992 -199.36417969 215.87416992 -200.45703125 215.26757812 C-201.20726562 214.86345703 -201.9575 214.45933594 -202.73046875 214.04296875 C-203.48070312 213.62724609 -204.2309375 213.21152344 -205.00390625 212.78320312 C-211.90396441 208.99066213 -212.8810972 210.31203656 -219.87109375 214.22265625 Z M144.52734375 211.84375 C142.8015152 212.88588493 141.09081899 213.95341044 139.39453125 215.04296875 C138.51539063 215.58115234 137.63625 216.11933594 136.73046875 216.67382812 C134.56261146 218.00517527 132.41101348 219.35724407 130.26953125 220.73046875 C130.388125 221.55546875 130.50671875 222.38046875 130.62890625 223.23046875 C132.13387336 236.71497402 129.80478235 248.31845629 121.85546875 259.49609375 C120.36452182 261.59663967 119.16201574 263.31688754 118.26953125 265.73046875 C118.85373565 267.7932722 118.85373565 267.7932722 120.171875 269.80078125 C120.64222168 270.60104736 121.11256836 271.40131348 121.59716797 272.22583008 C122.12842285 273.09361084 122.65967773 273.9613916 123.20703125 274.85546875 C124.3336714 276.75761231 125.45995748 278.6599656 126.5859375 280.5625 C127.18809082 281.56748535 127.79024414 282.5724707 128.41064453 283.60791016 C130.91044925 287.80708304 133.34199232 292.04398241 135.77392578 296.28271484 C141.41936008 306.12206875 147.11976454 315.92980079 152.83203125 325.73046875 C153.39132324 326.69057861 153.95061523 327.65068848 154.52685547 328.63989258 C156.10275972 331.3397141 157.6849036 334.03575965 159.26953125 336.73046875 C159.8301123 337.68953125 160.39069336 338.64859375 160.96826172 339.63671875 C161.5098291 340.55453125 162.05139648 341.47234375 162.609375 342.41796875 C163.09656006 343.24683594 163.58374512 344.07570313 164.08569336 344.9296875 C164.47635986 345.52394531 164.86702637 346.11820313 165.26953125 346.73046875 C165.59953125 346.73046875 165.92953125 346.73046875 166.26953125 346.73046875 C166.26953125 304.16046875 166.26953125 261.59046875 166.26953125 217.73046875 C162.63953125 216.08046875 159.00953125 214.43046875 155.26953125 212.73046875 C154.25632812 212.02277344 153.243125 211.31507813 152.19921875 210.5859375 C148.56640993 209.52515733 147.80849316 210.13037439 144.52734375 211.84375 Z M-92.67578125 254.13671875 C-93.83791652 256.64073327 -94.78463315 259.12987158 -95.73046875 261.73046875 C-96.39046875 262.72046875 -97.05046875 263.71046875 -97.73046875 264.73046875 C-97.3945828 268.60549418 -95.99441472 271.38390682 -94.02734375 274.6953125 C-93.46611816 275.64825195 -92.90489258 276.60119141 -92.32666016 277.58300781 C-91.41279541 279.11006348 -91.41279541 279.11006348 -90.48046875 280.66796875 C-89.84931152 281.7362793 -89.2181543 282.80458984 -88.56787109 283.90527344 C-86.6289333 287.18446626 -84.68066482 290.45796169 -82.73046875 293.73046875 C-80.6028393 297.31224681 -78.47836055 300.89588096 -76.35546875 304.48046875 C-75.8332373 305.3612207 -75.31100586 306.24197266 -74.77294922 307.14941406 C-70.66535634 314.09729789 -66.64043585 321.09093837 -62.6416626 328.10177612 C-61.6149853 329.90128858 -60.58671035 331.6998798 -59.55810547 333.49829102 C-56.48056305 338.88317608 -53.42025792 344.27627235 -50.41015625 349.69921875 C-49.91016113 350.58971924 -49.41016602 351.48021973 -48.89501953 352.39770508 C-47.97907377 354.02961881 -47.0731082 355.66719116 -46.17919922 357.3112793 C-44.2519428 361.11664258 -44.2519428 361.11664258 -40.88867188 363.42871094 C-38.54960866 363.75575643 -36.32700106 363.84326703 -33.96484375 363.828125 C-32.63066406 363.82329102 -32.63066406 363.82329102 -31.26953125 363.81835938 C-30.34914063 363.80998047 -29.42875 363.80160156 -28.48046875 363.79296875 C-27.54460937 363.78845703 -26.60875 363.78394531 -25.64453125 363.77929688 C-23.33977834 363.76753793 -21.03515648 363.75110301 -18.73046875 363.73046875 C-18.47056152 363.25029297 -18.2106543 362.77011719 -17.94287109 362.27539062 C-11.90457842 351.14629638 -5.68482073 340.1409956 0.72314453 329.22070312 C5.97839856 320.25711023 11.14537005 311.2447967 16.26782227 302.20483398 C19.58970065 296.35280893 22.96478917 290.54435359 26.46484375 284.796875 C27.45677734 283.15235352 27.45677734 283.15235352 28.46875 281.47460938 C29.72434434 279.40020453 30.99455054 277.33455284 32.28125 275.27929688 C32.83683594 274.35697266 33.39242187 273.43464844 33.96484375 272.484375 C34.46000488 271.68330322 34.95516602 270.88223145 35.46533203 270.05688477 C36.5312671 267.6946921 36.5312671 267.6946921 35.51708984 265.10546875 C34.07138724 262.35325839 32.47573336 259.7670351 30.76953125 257.16796875 C28.74670055 254.07800914 26.89311688 251.0452894 25.26953125 247.73046875 C23.70857158 246.16950908 22.16867506 246.55931661 19.99584961 246.50927734 C19.07351028 246.48622528 18.15117096 246.46317322 17.20088196 246.43942261 C16.18068466 246.41945221 15.16048737 246.39948181 14.109375 246.37890625 C12.50687141 246.34254562 12.50687141 246.34254562 10.87199402 246.30545044 C0.99433839 246.09382461 -8.88472507 245.96924394 -18.76409912 245.87115479 C-25.40551999 245.80410065 -32.04234232 245.70843049 -38.68212891 245.54394531 C-45.09621389 245.38573954 -51.5073991 245.30137119 -57.92330933 245.26837158 C-60.36685762 245.24321857 -62.81028433 245.19197933 -65.25271606 245.11395264 C-81.55280703 244.01925139 -81.55280703 244.01925139 -92.67578125 254.13671875 Z M-149.73046875 282.73046875 C-150.25664795 283.67792969 -150.25664795 283.67792969 -150.79345703 284.64453125 C-157.33232839 296.40475599 -163.91679503 308.12689855 -170.73046875 319.73046875 C-176.13501749 328.93774159 -181.40149917 338.21401104 -186.59472656 347.54199219 C-190.99152271 355.43527626 -195.46115238 363.2841991 -200.00048828 371.09643555 C-200.46310059 371.89863525 -200.92571289 372.70083496 -201.40234375 373.52734375 C-201.80549805 374.22182617 -202.20865234 374.91630859 -202.62402344 375.63183594 C-203.17171387 376.67065918 -203.17171387 376.67065918 -203.73046875 377.73046875 C-204.15043121 378.4293219 -204.57039368 379.12817505 -205.00308228 379.84820557 C-206.1160404 384.25829337 -204.62472701 387.06286376 -202.47509766 390.9453125 C-200.05567875 394.97589507 -197.74509578 398.01086349 -193.21569061 399.62872314 C-185.48566172 401.03716088 -177.63041581 400.56254829 -169.81640625 400.29296875 C-167.27486308 400.26309993 -164.73322733 400.24033716 -162.19155884 400.22436523 C-156.20395079 400.16968236 -150.22200707 400.04386541 -144.23666251 399.8827734 C-137.41740218 399.70326451 -130.59790247 399.61580305 -123.77686381 399.53564644 C-109.75878793 399.36887353 -95.74488834 399.08788116 -81.73046875 398.73046875 C-81.17617188 397.75464844 -80.621875 396.77882813 -80.05078125 395.7734375 C-79.31906784 394.48824856 -78.58729383 393.20309411 -77.85546875 391.91796875 C-77.49066406 391.27537109 -77.12585938 390.63277344 -76.75 389.97070312 C-75.14962974 387.16278077 -73.52404009 384.42082577 -71.73046875 381.73046875 C-78.83655007 369.06885376 -86.02068493 356.45805693 -93.35595703 343.92773438 C-97.67666194 336.54529063 -101.96100768 329.14265085 -106.23046875 321.73046875 C-107.47522253 319.57549895 -108.72001417 317.42055102 -109.96484375 315.265625 C-112.55314662 310.7820732 -115.12270143 306.28832026 -117.68359375 301.7890625 C-118.94902276 299.58191887 -120.21464073 297.37488357 -121.48046875 295.16796875 C-122.06505859 294.13220703 -122.64964844 293.09644531 -123.25195312 292.02929688 C-124.06889648 290.61100586 -124.06889648 290.61100586 -124.90234375 289.1640625 C-125.61535645 287.9119397 -125.61535645 287.9119397 -126.34277344 286.63452148 C-127.66836191 284.42871571 -127.66836191 284.42871571 -130.73046875 283.73046875 C-132.21012801 283.58473817 -133.69450718 283.48383607 -135.1796875 283.4140625 C-136.02724609 283.37216797 -136.87480469 283.33027344 -137.74804688 283.28710938 C-138.62912109 283.24779297 -139.51019531 283.20847656 -140.41796875 283.16796875 C-141.31064453 283.12478516 -142.20332031 283.08160156 -143.12304688 283.03710938 C-145.32536983 282.93111522 -147.52780348 282.82904824 -149.73046875 282.73046875 Z M64.83203125 286.10546875 C63.93846077 287.96201325 63.09115094 289.84098025 62.26953125 291.73046875 C61.18295879 293.75044046 60.05107981 295.74141909 58.91748047 297.73535156 C57.60617415 300.04811966 56.32444598 302.37547605 55.046875 304.70703125 C52.15745505 309.95619588 49.18827511 315.15804551 46.20703125 320.35546875 C42.41222415 326.97504024 38.6454887 333.60831393 34.92260742 340.26855469 C32.5016005 344.58240775 30.03644341 348.86922652 27.5546875 353.1484375 C27.22413864 353.71876205 26.89358978 354.28908661 26.55302429 354.87669373 C24.90075603 357.72695188 23.24535376 360.57525501 21.5847168 363.4206543 C20.3602807 365.53030616 19.15744877 367.65267231 17.97851562 369.78808594 C16.26953125 372.73046875 16.26953125 372.73046875 14.38867188 375.18066406 C12.47190728 377.92298855 11.67874041 379.38592205 11.26953125 382.73046875 C12.39845802 385.71065361 14.01310516 388.34628259 15.67675781 391.05615234 C16.11271271 391.79576706 16.5486676 392.53538177 16.99783325 393.29740906 C18.07346064 395.1173412 19.16954851 396.92515292 20.26953125 398.73046875 C35.14214739 399.01110027 50.01455812 399.2225476 64.88926029 399.35221481 C71.79645984 399.41403064 78.7020123 399.49825626 85.6081543 399.63574219 C92.27381932 399.7683772 98.93742098 399.83788439 105.60445976 399.86899567 C108.14721037 399.8911632 110.68986763 399.93445499 113.23188972 399.99922943 C126.59033208 401.00652547 126.59033208 401.00652547 138.3132019 396.15490723 C140.16575083 393.02259929 141.23369596 390.20526407 142.26953125 386.73046875 C143.22417759 385.03741585 144.2108411 383.36048499 145.26953125 381.73046875 C132.04049744 358.53701491 118.78396725 335.35918829 105.27929688 312.32470703 C102.50984461 307.59712829 99.76807898 302.85806569 97.08984375 298.078125 C96.59129883 297.19503662 96.09275391 296.31194824 95.57910156 295.40209961 C94.65014269 293.75302371 93.72964128 292.09914299 92.81933594 290.43969727 C92.40844727 289.71322998 91.99755859 288.9867627 91.57421875 288.23828125 C91.22343262 287.6055127 90.87264648 286.97274414 90.51123047 286.32080078 C88.00783721 283.11452794 85.31115261 282.73593207 81.37109375 282.21875 C72.00724189 281.29503724 72.00724189 281.29503724 64.83203125 286.10546875 Z M-227.73046875 342.73046875 C-227.73046875 344.38046875 -227.73046875 346.03046875 -227.73046875 347.73046875 C-227.07046875 346.41046875 -226.41046875 345.09046875 -225.73046875 343.73046875 C-226.39046875 343.40046875 -227.05046875 343.07046875 -227.73046875 342.73046875 Z M-180.73046875 434.73046875 C-177.68703812 437.01304172 -174.8435797 438.89982692 -171.56640625 440.77734375 C-170.5395874 441.36749268 -169.51276855 441.9576416 -168.45483398 442.56567383 C-167.34954346 443.19755615 -166.24425293 443.82943848 -165.10546875 444.48046875 C-163.94523037 445.14644373 -162.78515823 445.81270842 -161.62524414 446.47924805 C-159.20900252 447.867381 -156.79204737 449.25425869 -154.37451172 450.64013672 C-148.63374579 453.9319629 -142.90057232 457.23695142 -137.16796875 460.54296875 C-136.07911377 461.17074219 -134.99025879 461.79851562 -133.8684082 462.4453125 C-127.15238943 466.32129502 -120.4559128 470.22835431 -113.77807617 474.16967773 C-98.51582899 483.1732653 -83.12472224 491.95521271 -67.73046875 500.73046875 C-67.17617188 500.38113281 -66.621875 500.03179688 -66.05078125 499.671875 C-65.32632813 499.21683594 -64.601875 498.76179688 -63.85546875 498.29296875 C-63.13617188 497.84050781 -62.416875 497.38804687 -61.67578125 496.921875 C-57.85093202 494.57934686 -53.73806267 492.73426571 -49.73046875 490.73046875 C-49.73046875 482.81046875 -49.73046875 474.89046875 -49.73046875 466.73046875 C-51.68984375 465.74046875 -53.64921875 464.75046875 -55.66796875 463.73046875 C-68.54971359 456.89755723 -75.26705737 447.65729152 -81.73046875 434.73046875 C-114.40046875 434.73046875 -147.07046875 434.73046875 -180.73046875 434.73046875 Z M21.26953125 434.73046875 C18.62953125 439.35046875 15.98953125 443.97046875 13.26953125 448.73046875 C12.27953125 449.72046875 11.28953125 450.71046875 10.26953125 451.73046875 C10.26953125 452.39046875 10.26953125 453.05046875 10.26953125 453.73046875 C9.68429687 454.00246094 9.0990625 454.27445313 8.49609375 454.5546875 C6.30803963 455.71013362 4.56674427 456.99292889 2.64453125 458.54296875 C-1.73046875 461.73046875 -1.73046875 461.73046875 -11.73046875 466.73046875 C-11.73046875 474.65046875 -11.73046875 482.57046875 -11.73046875 490.73046875 C-9.50296875 492.00921875 -7.27546875 493.28796875 -4.98046875 494.60546875 C-4.28598633 495.00491699 -3.59150391 495.40436523 -2.87597656 495.81591797 C-1.16543326 496.79555688 0.55209981 497.76295647 2.26953125 498.73046875 C2.90632813 499.14506348 3.543125 499.5596582 4.19921875 499.98681641 C6.28447092 500.97871526 6.28447092 500.97871526 8.45410156 499.98632812 C9.24397461 499.52033203 10.03384766 499.05433594 10.84765625 498.57421875 C11.74846924 498.05359863 12.64928223 497.53297852 13.57739258 496.99658203 C14.54829834 496.41376465 15.5192041 495.83094727 16.51953125 495.23046875 C17.53877686 494.6360498 18.55802246 494.04163086 19.6081543 493.42919922 C21.76088222 492.1716145 23.9094852 490.90694579 26.05419922 489.63574219 C29.09803055 487.83209301 32.15170809 486.04690941 35.2109375 484.26953125 C39.18098186 481.9623275 43.14687072 479.64825454 47.109375 477.328125 C53.4404012 473.62533896 59.79017995 469.95554955 66.14453125 466.29296875 C67.21292236 465.67703857 68.28131348 465.0611084 69.38208008 464.42651367 C73.84942868 461.85186516 78.31748427 459.27844622 82.78613281 456.70605469 C85.14299416 455.34931617 87.49960049 453.99213654 89.85595703 452.63452148 C92.05959994 451.36500756 94.2636708 450.09623607 96.46826172 448.82836914 C102.77557302 445.19427179 109.04192911 441.49958028 115.26953125 437.73046875 C114.77453125 436.24546875 114.77453125 436.24546875 114.26953125 434.73046875 C83.57953125 434.73046875 52.88953125 434.73046875 21.26953125 434.73046875 Z M116.26953125 434.73046875 C115.93953125 435.39046875 115.60953125 436.05046875 115.26953125 436.73046875 C116.58953125 436.07046875 117.90953125 435.41046875 119.26953125 434.73046875 C118.27953125 434.73046875 117.28953125 434.73046875 116.26953125 434.73046875 Z " fill="#FECE0B" transform="translate(542.73046875,218.26953125)"/>
<path d="M0 0 C4.95 0 9.9 0 15 0 C15 0.33 15 0.66 15 1 C10.05 1 5.1 1 0 1 C0 0.67 0 0.34 0 0 Z " fill="#FECF0A" transform="translate(432,654)"/>
<path d="M0 0 C4.29 0 8.58 0 13 0 C13 0.33 13 0.66 13 1 C8.71 1 4.42 1 0 1 C0 0.67 0 0.34 0 0 Z " fill="#FECE0C" transform="translate(584,654)"/>
<path d="M0 0 C3.3 0 6.6 0 10 0 C10 0.33 10 0.66 10 1 C6.7 1 3.4 1 0 1 C0 0.67 0 0.34 0 0 Z " fill="#FECE0B" transform="translate(637,654)"/>
<path d="M0 0 C3.3 0 6.6 0 10 0 C10 0.33 10 0.66 10 1 C6.7 1 3.4 1 0 1 C0 0.67 0 0.34 0 0 Z " fill="#FED00B" transform="translate(568,654)"/>
<path d="M0 0 C2.97 0 5.94 0 9 0 C9 0.33 9 0.66 9 1 C6.03 1 3.06 1 0 1 C0 0.67 0 0.34 0 0 Z " fill="#FECD0B" transform="translate(606,654)"/>
<path d="M0 0 C2.31 0 4.62 0 7 0 C7 0.33 7 0.66 7 1 C4.69 1 2.38 1 0 1 C0 0.67 0 0.34 0 0 Z " fill="#FECE0B" transform="translate(624,654)"/>
<path d="M0 0 C1.98 0 3.96 0 6 0 C6 0.33 6 0.66 6 1 C4.02 1 2.04 1 0 1 C0 0.67 0 0.34 0 0 Z " fill="#FECE0B" transform="translate(616,654)"/>
<path d="M0 0 C1.98 0 3.96 0 6 0 C6 0.33 6 0.66 6 1 C4.02 1 2.04 1 0 1 C0 0.67 0 0.34 0 0 Z " fill="#FECF0B" transform="translate(408,654)"/>
<path d="M0 0 C1.98 0 3.96 0 6 0 C6 0.33 6 0.66 6 1 C4.02 1 2.04 1 0 1 C0 0.67 0 0.34 0 0 Z " fill="#FED00B" transform="translate(368,654)"/>
<path d="M0 0 C1.65 0 3.3 0 5 0 C5 0.33 5 0.66 5 1 C3.35 1 1.7 1 0 1 C0 0.67 0 0.34 0 0 Z " fill="#FECF0B" transform="translate(648,654)"/>
<path d="M0 0 C1.65 0 3.3 0 5 0 C5 0.33 5 0.66 5 1 C3.35 1 1.7 1 0 1 C0 0.67 0 0.34 0 0 Z " fill="#FED00C" transform="translate(448,654)"/>
<path d="M0 0 C1.65 0 3.3 0 5 0 C5 0.33 5 0.66 5 1 C3.35 1 1.7 1 0 1 C0 0.67 0 0.34 0 0 Z " fill="#FFCE0B" transform="translate(424,654)"/>
<path d="M0 0 C1.65 0 3.3 0 5 0 C5 0.33 5 0.66 5 1 C3.35 1 1.7 1 0 1 C0 0.67 0 0.34 0 0 Z " fill="#FECF0C" transform="translate(416,654)"/>
<path d="M0 0 C1.65 0 3.3 0 5 0 C5 0.33 5 0.66 5 1 C3.35 1 1.7 1 0 1 C0 0.67 0 0.34 0 0 Z " fill="#FECF0C" transform="translate(400,654)"/>
<path d="M0 0 C1.65 0 3.3 0 5 0 C5 0.33 5 0.66 5 1 C3.35 1 1.7 1 0 1 C0 0.67 0 0.34 0 0 Z " fill="#FED00C" transform="translate(376,654)"/>
<path d="M0 0 C4 1 4 1 4 1 Z " fill="#FED00B" transform="translate(632,654)"/>
<path d="M0 0 C4 1 4 1 4 1 Z " fill="#FECE0C" transform="translate(601,654)"/>
<path d="M0 0 C4 1 4 1 4 1 Z " fill="#FFCF0B" transform="translate(395,654)"/>
<path d="M0 0 C0.66 0.66 1.32 1.32 2 2 C1.01 1.67 0.02 1.34 -1 1 C-0.67 0.67 -0.34 0.34 0 0 Z " fill="#FDCF0B" transform="translate(502,579)"/>
<path d="M0 0 C0.66 0 1.32 0 2 0 C1.67 0.66 1.34 1.32 1 2 C0.67 1.34 0.34 0.68 0 0 Z " fill="#FFD10D" transform="translate(489,685)"/>
<path d="M0 0 C3 1 3 1 3 1 Z " fill="#FECE0C" transform="translate(624,672)"/>
<path d="" fill="#FFCF0A" transform="translate(0,0)"/>
<path d="M0 0 C3 1 3 1 3 1 Z " fill="#FFD00B" transform="translate(563,429)"/>
<path d="" fill="#EFC115" transform="translate(0,0)"/>
<path d="M0 0 C2 1 2 1 2 1 Z " fill="#FFCE0D" transform="translate(584,696)"/>
<path d="M0 0 C2 1 2 1 2 1 Z " fill="#FFD00B" transform="translate(598,654)"/>
<path d="M0 0 C2 1 2 1 2 1 Z " fill="#FECF0C" transform="translate(579,654)"/>
<path d="M0 0 C2 1 2 1 2 1 Z " fill="#FECE0B" transform="translate(456,654)"/>
<path d="M0 0 C2 1 2 1 2 1 Z " fill="#FFD00C" transform="translate(392,654)"/>
<path d="" fill="#FECC0B" transform="translate(0,0)"/>
<path d="M0 0 C2 1 2 1 2 1 Z " fill="#FECF0B" transform="translate(462,466)"/>
<path d="M0 0 C2 1 2 1 2 1 Z " fill="#FED00A" transform="translate(560,429)"/>
<path d="M0 0 C2 1 2 1 2 1 Z " fill="#FFD10B" transform="translate(539,429)"/>
<path d="M0 0 C2 1 2 1 2 1 Z " fill="#FED00A" transform="translate(531,429)"/>
<path d="M0 0 C2 1 2 1 2 1 Z " fill="#FFD10B" transform="translate(507,429)"/>
<path d="" fill="#FECD0C" transform="translate(0,0)"/>
<path d="M0 0 C2 1 2 1 2 1 Z " fill="#FFCE0A" transform="translate(517,317)"/>
<path d="M0 0 C2 1 2 1 2 1 Z " fill="#FECC0E" transform="translate(456,272)"/>
<path d="M0 0 C2 1 2 1 2 1 Z " fill="#F6C411" transform="translate(480,216)"/>
<path d="" fill="#595448" transform="translate(0,0)"/>
<path d="" fill="#F0C211" transform="translate(0,0)"/>
<path d="" fill="#FBCA0D" transform="translate(0,0)"/>
<path d="" fill="#FCCA10" transform="translate(0,0)"/>
<path d="" fill="#FDCD0B" transform="translate(0,0)"/>
<path d="" fill="#FCCE0C" transform="translate(0,0)"/>
<path d="" fill="#FECE0D" transform="translate(0,0)"/>
<path d="" fill="#FFD00B" transform="translate(0,0)"/>
<path d="" fill="#FBC70D" transform="translate(0,0)"/>
<path d="" fill="#F3C413" transform="translate(0,0)"/>
<path d="" fill="#FBCD0C" transform="translate(0,0)"/>
<path d="" fill="#FFD00C" transform="translate(0,0)"/>
<path d="" fill="#FFCE0B" transform="translate(0,0)"/>
<path d="" fill="#FFCE0B" transform="translate(0,0)"/>
<path d="" fill="#FDCE0D" transform="translate(0,0)"/>
<path d="" fill="#FECF0B" transform="translate(0,0)"/>
<path d="" fill="#EDBF14" transform="translate(0,0)"/>
<path d="" fill="#FFCF0B" transform="translate(0,0)"/>
<path d="" fill="#FFD00C" transform="translate(0,0)"/>
<path d="" fill="#FFCF09" transform="translate(0,0)"/>
<path d="" fill="#FFD10B" transform="translate(0,0)"/>
<path d="" fill="#FFCE0A" transform="translate(0,0)"/>
<path d="" fill="#FFD10D" transform="translate(0,0)"/>
<path d="" fill="#F2C113" transform="translate(0,0)"/>
<path d="" fill="#EEBD13" transform="translate(0,0)"/>
<path d="" fill="#EDBD14" transform="translate(0,0)"/>
<path d="" fill="#EEBF16" transform="translate(0,0)"/>
<path d="" fill="#F0C213" transform="translate(0,0)"/>
<path d="" fill="#8F8E90" transform="translate(0,0)"/>
<path d="" fill="#FDCC0B" transform="translate(0,0)"/>
<path d="" fill="#FFD00A" transform="translate(0,0)"/>
<path d="" fill="#FECF0B" transform="translate(0,0)"/>
<path d="" fill="#FFCE0C" transform="translate(0,0)"/>
<path d="" fill="#FBCB11" transform="translate(0,0)"/>
<path d="" fill="#FDCD0C" transform="translate(0,0)"/>
<path d="" fill="#FFCD09" transform="translate(0,0)"/>
<path d="" fill="#FECE0B" transform="translate(0,0)"/>
<path d="" fill="#FFCF0C" transform="translate(0,0)"/>
<path d="" fill="#FFD00C" transform="translate(0,0)"/>
<path d="" fill="#FECE0A" transform="translate(0,0)"/>
<path d="" fill="#FFCD0B" transform="translate(0,0)"/>
<path d="" fill="#FECE0A" transform="translate(0,0)"/>
<path d="" fill="#FBCA07" transform="translate(0,0)"/>
<path d="" fill="#FFD00B" transform="translate(0,0)"/>
<path d="" fill="#FDCD0A" transform="translate(0,0)"/>
<path d="" fill="#FECF0B" transform="translate(0,0)"/>
<path d="" fill="#FECC0B" transform="translate(0,0)"/>
<path d="" fill="#FFCE09" transform="translate(0,0)"/>
<path d="" fill="#FDCC0B" transform="translate(0,0)"/>
<path d="" fill="#FECD0A" transform="translate(0,0)"/>
<path d="" fill="#FFCE0C" transform="translate(0,0)"/>
<path d="" fill="#FDCC0C" transform="translate(0,0)"/>
<path d="" fill="#FFCD0D" transform="translate(0,0)"/>
<path d="" fill="#FFCF0C" transform="translate(0,0)"/>
<path d="" fill="#FFCE0A" transform="translate(0,0)"/>
<path d="" fill="#FFCC0D" transform="translate(0,0)"/>
<path d="" fill="#FFCE0C" transform="translate(0,0)"/>
<path d="" fill="#FCC90A" transform="translate(0,0)"/>
<path d="" fill="#FFCE0B" transform="translate(0,0)"/>
<path d="" fill="#FFCF0B" transform="translate(0,0)"/>
<path d="" fill="#FFD009" transform="translate(0,0)"/>
<path d="" fill="#FFCF0B" transform="translate(0,0)"/>
<path d="" fill="#FFCF0D" transform="translate(0,0)"/>
<path d="" fill="#FFD00B" transform="translate(0,0)"/>
<path d="" fill="#FFCF0B" transform="translate(0,0)"/>
<path d="" fill="#FFD00B" transform="translate(0,0)"/>
<path d="" fill="#FFD00D" transform="translate(0,0)"/>
<path d="" fill="#FFCF0D" transform="translate(0,0)"/>
<path d="" fill="#FFD00B" transform="translate(0,0)"/>
<path d="" fill="#FDCF0E" transform="translate(0,0)"/>
<path d="" fill="#FFD10C" transform="translate(0,0)"/>
<path d="" fill="#FECF0C" transform="translate(0,0)"/>
<path d="" fill="#FFD20B" transform="translate(0,0)"/>
<path d="" fill="#FED00C" transform="translate(0,0)"/>
<path d="" fill="#FFD10A" transform="translate(0,0)"/>
<path d="" fill="#FFD30C" transform="translate(0,0)"/>
<path d="" fill="#FFD20B" transform="translate(0,0)"/>
<path d="" fill="#FFD20B" transform="translate(0,0)"/>
<path d="" fill="#FED00A" transform="translate(0,0)"/>
<path d="" fill="#8F8E91" transform="translate(0,0)"/>
<path d="" fill="#F5C411" transform="translate(0,0)"/>
<path d="" fill="#FFCF09" transform="translate(0,0)"/>
<path d="" fill="#FFCE0B" transform="translate(0,0)"/>
<path d="" fill="#F0C313" transform="translate(0,0)"/>
<path d="" fill="#FBCC0D" transform="translate(0,0)"/>
<path d="" fill="#EFC012" transform="translate(0,0)"/>
<path d="" fill="#FECF0D" transform="translate(0,0)"/>
<path d="" fill="#FFD00B" transform="translate(0,0)"/>
<path d="" fill="#EFC214" transform="translate(0,0)"/>
<path d="" fill="#FFD00C" transform="translate(0,0)"/>
<path d="" fill="#FFD009" transform="translate(0,0)"/>
<path d="" fill="#FECE0A" transform="translate(0,0)"/>
<path d="" fill="#EEC217" transform="translate(0,0)"/>
<path d="" fill="#FECE0A" transform="translate(0,0)"/>
<path d="" fill="#FFCF0B" transform="translate(0,0)"/>
<path d="" fill="#FFCF0B" transform="translate(0,0)"/>
<path d="" fill="#EEBF12" transform="translate(0,0)"/>
<path d="" fill="#FFCD0D" transform="translate(0,0)"/>
<path d="" fill="#FECE0B" transform="translate(0,0)"/>
<path d="" fill="#F0C210" transform="translate(0,0)"/>
<path d="" fill="#FDCD0D" transform="translate(0,0)"/>
<path d="" fill="#FDCA0D" transform="translate(0,0)"/>
<path d="" fill="#FFCF0C" transform="translate(0,0)"/>
<path d="" fill="#F2C112" transform="translate(0,0)"/>
<path d="" fill="#FECD0C" transform="translate(0,0)"/>
<path d="" fill="#FFD00C" transform="translate(0,0)"/>
<path d="" fill="#F9CA0F" transform="translate(0,0)"/>
<path d="" fill="#FFCF0D" transform="translate(0,0)"/>
<path d="" fill="#FFCF0B" transform="translate(0,0)"/>
<path d="" fill="#FFCF0B" transform="translate(0,0)"/>
<path d="" fill="#FECF0D" transform="translate(0,0)"/>
<path d="" fill="#FECD0F" transform="translate(0,0)"/>
<path d="" fill="#FCCC0D" transform="translate(0,0)"/>
<path d="" fill="#FBCC0F" transform="translate(0,0)"/>
<path d="" fill="#FCCC10" transform="translate(0,0)"/>
<path d="" fill="#554F44" transform="translate(0,0)"/>
</svg>
